<svg xmlns="http://www.w3.org/2000/svg" version="1.0" width="300.000000pt" height="300.000000pt" viewBox="0 0 300.000000 300.000000" preserveAspectRatio="xMidYMid meet">
<metadata fill="#ffffff">
Created by potrace 1.10, written by Peter Selinger 2001-2011
</metadata>
<g transform="translate(0.000000,300.000000) scale(0.100000,-0.100000)" fill="#ffffff" stroke="none">
<path d="M944 2421 c-47 -28 -64 -83 -64 -202 0 -135 25 -189 96 -208 l29 -7 5 -103 5 -103 78 106 78 106 124 0 125 0 0 88 c1 134 29 192 102 214 44 13 46 23 15 69 -38 57 -48 59 -317 59 -223 0 -248 -2 -276 -19z" fill="#ffffff"/>
<path d="M1494 2281 c-43 -26 -54 -66 -54 -201 0 -105 2 -120 23 -151 36 -53 56 -59 219 -59 l147 0 78 -102 78 -103 3 103 c2 83 5 102 18 102 34 0 76 33 95 73 14 32 19 66 19 145 0 115 -12 156 -55 190 -27 21 -36 22 -284 22 -234 0 -259 -2 -287 -19z" fill="#ffffff"/>
<path d="M747 1646 c-164 -61 -232 -237 -150 -388 84 -155 297 -184 423 -58 164 164 59 442 -174 456 -37 3 -76 -1 -99 -10z" fill="#ffffff"/>
<path d="M2089 1647 c-126 -47 -196 -151 -187 -276 10 -141 114 -241 258 -249 58 -3 72 0 129 30 103 53 159 154 148 264 -9 91 -66 173 -150 216 -52 26 -149 33 -198 15z" fill="#ffffff"/>
<path d="M534 1136 c-90 -96 -149 -246 -156 -396 l-3 -75 55 -27 c81 -41 208 -59 400 -59 220 0 384 29 444 80 16 14 17 25 12 91 -10 106 -23 153 -67 246 -38 80 -128 194 -153 194 -7 0 -21 -9 -32 -21 -10 -12 -41 -33 -69 -47 -43 -23 -63 -27 -135 -27 -91 0 -133 15 -198 70 -16 14 -34 25 -38 25 -5 0 -31 -24 -60 -54z" fill="#ffffff"/>
<path d="M1871 1134 c-56 -61 -122 -188 -140 -269 -7 -27 -13 -83 -14 -124 -2 -68 0 -75 23 -92 14 -10 61 -28 104 -39 222 -56 614 -39 741 33 l40 23 -3 75 c-4 92 -25 175 -63 256 -33 69 -97 154 -134 179 -23 15 -26 15 -56 -10 -114 -96 -282 -100 -388 -10 -21 19 -44 34 -49 34 -6 0 -33 -25 -61 -56z" fill="#ffffff"/>
</g>
</svg>