 <svg  version="1.0" xmlns="http://www.w3.org/2000/svg"  width="900.000000pt" height="900.000000pt" viewBox="0 0 900.000000 900.000000"  preserveAspectRatio="xMidYMid meet">  <g transform="translate(0.000000,900.000000) scale(0.100000,-0.100000)" fill="#ffffff" stroke="none"> <path d="M1310 7761 c-139 -24 -265 -93 -380 -211 -88 -89 -128 -154 -173 -283 -19 -53 -22 -84 -22 -207 0 -124 3 -155 23 -214 58 -178 165 -311 330 -410 89 -54 153 -75 261 -86 237 -25 437 44 596 204 318 320 269 843 -103 1094 -121 83 -214 112 -367 117 -66 2 -140 0 -165 -4z"/> <path d="M6976 7029 c-100 -16 -210 -66 -296 -132 -107 -84 -183 -193 -231 -334 -20 -57 -24 -89 -24 -193 0 -143 18 -215 82 -330 136 -244 420 -383 683 -336 47 9 95 16 107 16 41 0 196 101 269 175 81 82 134 170 170 281 32 102 34 275 4 374 -28 90 -75 179 -129 244 -47 57 -164 156 -183 156 -6 0 -19 6 -27 13 -23 20 -126 54 -195 67 -68 11 -159 11 -230 -1z"/> <path d="M4524 6660 c-12 -4 -31 -21 -43 -36 -21 -27 -21 -28 -21 -659 0 -599 1 -633 18 -648 17 -15 65 -17 490 -17 l471 0 33 -29 c64 -55 248 -182 305 -210 32 -16 92 -43 133 -61 41 -18 80 -36 85 -40 11 -9 118 -38 180 -50 22 -4 67 -15 100 -24 98 -26 197 -36 438 -43 l227 -6 6 -26 c3 -14 12 -51 19 -81 8 -30 23 -100 35 -155 11 -55 27 -128 35 -162 13 -53 43 -189 92 -413 28 -131 28 -148 2 -159 -37 -15 -310 -101 -321 -101 -5 0 -75 -32 -154 -71 -126 -62 -154 -80 -217 -142 -62 -61 -79 -86 -109 -157 -20 -47 -50 -130 -67 -185 -33 -108 -139 -549 -151 -630 -8 -48 -24 -134 -55 -295 -8 -41 -23 -120 -34 -175 -11 -55 -29 -152 -41 -215 -12 -63 -26 -134 -31 -157 -5 -23 -9 -78 -9 -123 0 -71 4 -90 33 -153 90 -191 309 -263 493 -160 61 34 127 111 152 178 20 52 104 440 123 563 4 29 12 74 18 100 6 26 25 117 42 202 17 85 47 227 66 315 20 88 41 187 48 220 17 81 36 155 46 183 8 22 12 22 169 22 161 0 455 23 520 40 19 6 76 19 125 30 253 57 490 201 578 351 38 65 67 166 67 236 0 78 -42 357 -75 498 -8 33 -19 85 -24 115 -13 73 -36 179 -68 320 -14 63 -32 142 -39 175 -12 59 -23 109 -65 295 -11 52 -27 123 -35 156 -46 208 -145 324 -346 404 -158 62 -384 63 -505 1 -6 -3 -51 -34 -100 -67 -89 -63 -155 -128 -205 -203 l-28 -41 -147 -1 c-196 -1 -201 -1 -328 17 -204 29 -371 94 -550 214 -126 85 -199 120 -250 120 -14 0 -52 -9 -85 -21 -34 -11 -67 -18 -75 -15 -13 5 -15 58 -15 358 0 326 -1 355 -19 383 -10 17 -63 77 -118 135 l-100 105 -349 2 c-192 1 -359 -2 -370 -7z m663 -82 c4 -7 8 -55 8 -106 0 -116 5 -122 116 -122 56 0 80 -4 89 -15 19 -22 10 -956 -9 -979 -12 -14 -61 -16 -415 -16 -347 0 -405 2 -424 16 l-22 15 0 598 c0 451 3 600 12 609 18 18 634 17 645 0z m135 -95 c37 -34 12 -77 -31 -53 -27 14 -30 70 -4 70 9 0 25 -7 35 -17z"/> <path d="M4658 6283 c-24 -6 -23 -40 1 -53 32 -16 592 -13 616 4 25 18 13 42 -25 50 -36 7 -565 6 -592 -1z"/> <path d="M4658 6099 c-22 -13 -23 -45 -2 -53 9 -3 146 -6 305 -6 323 0 361 7 313 54 -13 14 -55 16 -307 16 -180 0 -299 -5 -309 -11z"/> <path d="M4644 5915 c-4 -8 -4 -22 0 -30 5 -13 49 -15 314 -15 263 0 311 2 322 15 10 12 10 18 0 30 -11 13 -59 15 -322 15 -265 0 -309 -2 -314 -15z"/> <path d="M4647 5743 c-13 -12 -7 -41 9 -47 9 -3 150 -6 314 -6 281 0 300 1 309 18 21 39 1 42 -319 42 -169 0 -310 -3 -313 -7z"/> <path d="M920 6377 c-3 -3 -37 -11 -75 -17 -39 -6 -83 -17 -100 -24 -165 -78 -184 -89 -242 -147 -90 -90 -124 -169 -173 -404 -12 -55 -30 -138 -40 -185 -27 -121 -55 -252 -74 -350 -10 -47 -24 -112 -31 -145 -8 -33 -23 -103 -34 -155 -51 -239 -93 -430 -106 -490 -8 -36 -16 -108 -16 -160 -1 -142 36 -236 146 -362 l55 -63 0 -1151 c0 -737 4 -1171 10 -1205 22 -116 103 -220 214 -274 53 -26 70 -29 156 -29 86 0 103 3 156 29 112 55 194 164 213 285 7 43 11 435 11 1131 0 1056 0 1065 20 1087 11 12 35 29 53 38 138 71 235 214 273 404 24 114 41 196 64 300 11 52 25 115 30 140 9 44 30 141 70 330 39 183 46 205 63 208 8 2 45 -16 82 -39 93 -58 242 -121 363 -153 204 -53 469 -30 744 63 213 72 275 122 304 248 26 111 -26 230 -128 294 -49 30 -59 33 -133 33 -65 -1 -97 -7 -170 -33 -157 -58 -220 -71 -346 -71 -292 0 -453 117 -721 525 -92 140 -142 194 -228 246 -81 50 -119 66 -179 79 -66 13 -224 24 -231 17z"/> <path d="M8686 5164 c-14 -13 -16 -65 -17 -407 -1 -412 -1 -411 -19 -602 -15 -153 -27 -220 -74 -395 -81 -307 -321 -552 -640 -655 -208 -66 -457 -105 -679 -105 -97 0 -98 -2 -95 -155 l3 -130 135 3 c74 1 195 9 268 18 72 9 139 14 147 10 13 -5 15 -61 15 -420 0 -270 -4 -417 -10 -421 -6 -4 -97 -8 -203 -10 -143 -2 -206 -8 -247 -20 -202 -62 -353 -208 -413 -400 -28 -90 -30 -132 -7 -155 18 -18 33 -20 130 -20 97 0 112 2 130 20 11 11 20 32 20 48 0 45 68 149 119 181 96 61 109 62 658 59 l498 -3 55 -28 c30 -15 64 -35 75 -45 36 -30 84 -108 94 -152 16 -73 29 -80 151 -80 90 0 112 3 131 19 l23 18 -16 80 c-44 223 -203 393 -428 457 -37 11 -124 19 -255 24 l-200 7 0 464 0 465 65 32 c36 18 95 45 131 62 37 16 118 69 181 116 203 152 345 360 432 631 87 269 116 548 116 1132 0 297 -2 344 -16 357 -23 23 -235 23 -258 0z"/> <path d="M2683 4520 l-23 -9 0 -265 c0 -192 3 -267 12 -272 6 -4 75 -8 153 -8 105 -1 146 -5 158 -15 16 -12 17 -118 17 -1342 0 -1194 2 -1329 16 -1343 14 -14 141 -16 1250 -16 833 0 1242 3 1255 10 19 11 19 36 19 1343 0 822 4 1338 10 1347 8 13 53 15 299 16 224 0 293 3 305 14 14 11 16 45 14 273 l-3 261 -25 7 c-37 10 -3431 9 -3457 -1z"/> </g> </svg> 