<svg xmlns="http://www.w3.org/2000/svg" width="256" height="256" version="1.0" viewBox="0 0 192 192"><path d="M11 96v96h168V0H11v96zm162 1v90H17V7h156v90z" fill="#ffffff"/><path d="M29 22v3h11.9c9.6 0 12-.3 12.5-1.5 1.5-3.9-.1-4.5-12.5-4.5H29v3zM83 22v3h78v-6H83v3zM64.7 37.7c-1.2 1.1-.7 4.2.7 5 .8.4 22.6.7 48.5.5L161 43v-6h-47.8c-26.3 0-48.2.3-48.5.7zM29 94v3h132v-6H29v3zM29 112v3h132v-6H29v3zM29 130v3h132v-6H29v3zM35.9 147.5c-4.9 3.2-6.9 6.6-6.9 12 0 5.1 3.2 11.1 7.4 13.8 3.8 2.5 10.9 2.2 15.4-.7 5.5-3.4 7.2-6.6 7.2-13 0-5.1-.3-5.7-4.5-10s-4.7-4.6-9.7-4.5c-3.8 0-6.3.7-8.9 2.4zm14.2 6.7c3.9 4.3 3.8 8.1-.2 11.9-4.3 4-8.1 3.9-12-.3-3.9-4.4-3.8-8.1.3-11.9 4.4-3.9 8.1-3.8 11.9.3zM71 160v3h44.9c39 0 45-.2 45.5-1.5.3-.8.3-2.2 0-3-.5-1.3-6.5-1.5-45.5-1.5H71v3z" fill="#ffffff"/></svg>