 <svg  version="1.0" xmlns="http://www.w3.org/2000/svg"  width="300.000000pt" height="300.000000pt" viewBox="0 0 300.000000 300.000000"  preserveAspectRatio="xMidYMid meet">  <g transform="translate(0.000000,300.000000) scale(0.100000,-0.100000)" fill="#ffffff" stroke="none"> <path d="M198 2461 c-71 -28 -121 -73 -159 -143 l-34 -63 0 -755 0 -755 34 -64 c41 -74 100 -124 174 -146 76 -23 2498 -23 2574 0 74 22 133 72 174 146 l34 64 0 755 0 755 -34 64 c-22 39 -52 76 -79 97 -89 67 -15 64 -1391 64 -1187 -1 -1248 -2 -1293 -19z m2422 -179 c0 -4 -246 -254 -548 -555 -426 -426 -553 -547 -572 -547 -19 0 -146 121 -572 547 -302 301 -548 551 -548 555 0 5 504 8 1120 8 616 0 1120 -3 1120 -8z m-2058 -1161 c-193 -193 -354 -351 -357 -351 -3 0 -5 318 -5 707 l0 708 357 -357 356 -356 -351 -351z m2236 -4 l-3 -352 -354 353 -354 354 354 354 354 354 3 -356 c1 -195 1 -514 0 -707z m-1592 63 c167 -165 205 -190 294 -190 89 0 127 25 297 192 l154 152 304 -304 c168 -168 305 -308 305 -312 0 -5 -477 -8 -1060 -8 -583 0 -1060 3 -1060 7 0 8 602 613 609 613 3 0 73 -67 157 -150z"/> </g> </svg> 