<svg xmlns="http://www.w3.org/2000/svg" xml:space="preserve" width="800" height="800" viewBox="0 0 127.5 128"><path d="M28.4 22.7c5.7 0 10.3-4.6 10.3-10.3C38.8 6.6 34.1 2 28.4 2c-3.9 0-7.2 2.1-9 5.2-.2.4-.5.7-.8 1-2 2-5.3 2-7.3 0-.3-.3-.6-.6-.8-1 1.4 8.8 8.9 15.5 17.9 15.5zM50.5 74.3c2.5-.3 4.3-2.5 4-5l-3.9-32.9c-.9-6.3-6.3-11.1-12.8-11.1H18c-6.5 0-11.9 4.8-12.8 11.1L1.3 69.2c-.3 2.5 1.5 4.7 4 5 2.5.3 4.7-1.5 5-4L14 39.8c.1-.6.6-1.1 1.3-1.1.7 0 1.3.6 1.3 1.3v.2S14 61.8 13.9 62.3c-.1.6-.1 1.2-.1 1.7v55c0 3.9 2.9 7 6.5 7s6.5-3.1 6.5-7V74.3c0-.7.6-1.3 1.3-1.3s1.3.6 1.3 1.3V119c0 3.9 2.9 7 6.5 7s6.5-3.1 6.5-7V64c0-.5 0-1.2-.1-1.7-.1-.4-2.7-22.1-2.7-22.1V40c0-.7.6-1.3 1.3-1.3.6 0 1.1.5 1.3 1.1l3.6 30.6c0 2.4 2.2 4.2 4.7 3.9z" fill="#ffffff"/><circle cx="63.2" cy="77" r="7" fill="#ffffff"/><path d="M70.5 85.8H55.9c-3.7.2-6.7 3.2-6.7 7v9.7c0 1.4 1.2 2.6 2.6 2.6 1.4 0 2.6-1.2 2.6-2.6v-8.1c0-.5.4-.9.9-.9s.9.4.9.9V123c0 1.7 1.3 3.1 3.1 3.1s3.1-1.3 3.1-3.1v-14.4c0-.5.4-.9.9-.9s.9.4.9.9V123c0 1.7 1.3 3.1 3.1 3.1s3.1-1.3 3.1-3.1V94.3c0-.5.4-.9.9-.9s.9.4.9.9v8.1c0 1.4 1.2 2.6 2.6 2.6 1.4 0 2.6-1.2 2.6-2.6v-9.7c-.2-3.7-3.1-6.7-6.9-6.9z" fill="#ffffff"/><circle cx="99.1" cy="11.8" r="10.4" fill="#ffffff"/><path d="M112.1 24.8H86.2c-7.2 0-12.9 5.8-12.9 12.9v31.7c0 2.5 2 4.6 4.6 4.6 2.6 0 4.6-2 4.6-4.6V40.3c0-.7.6-1.3 1.3-1.3s1.3.6 1.3 1.3v78.6c0 3.9 2.9 7.1 6.5 7.1s6.5-3.2 6.5-7.1V74.1c0-.7.6-1.3 1.3-1.3s1.3.6 1.3 1.3v44.8c0 3.9 2.9 7.1 6.5 7.1s6.5-3.2 6.5-7.1V40.3c0-.7.6-1.3 1.3-1.3.7 0 1.3.6 1.3 1.3v29.2c0 2.5 2 4.6 4.6 4.6 2.6 0 4.6-2 4.6-4.6V37.8c-.4-7.2-6.3-13-13.4-13z" fill="#ffffff"/></svg>