 <svg  version="1.0" xmlns="http://www.w3.org/2000/svg"  width="300.000000pt" height="300.000000pt" viewBox="0 0 300.000000 300.000000"  preserveAspectRatio="xMidYMid meet">  <g transform="translate(0.000000,300.000000) scale(0.100000,-0.100000)" fill="#ffffff" stroke="none"> <path d="M657 2980 c-109 -23 -265 -98 -354 -170 -135 -108 -247 -296 -283 -471 -19 -88 -20 -142 -20 -839 0 -864 -1 -853 89 -1034 90 -181 196 -287 377 -377 181 -90 170 -89 1034 -89 864 0 853 -1 1034 89 181 90 287 196 377 377 90 181 89 170 89 1034 0 864 1 853 -89 1034 -90 181 -196 287 -377 377 -182 90 -169 89 -1039 88 -692 0 -757 -2 -838 -19z m1656 -265 c190 -49 353 -212 402 -402 22 -85 22 -1541 0 -1626 -49 -190 -212 -353 -402 -402 -85 -22 -1541 -22 -1626 0 -190 49 -353 212 -402 402 -22 85 -22 1541 0 1626 49 188 211 351 398 402 80 21 1548 22 1630 0z"/> <path d="M2260 2491 c-84 -27 -135 -85 -146 -165 -21 -147 135 -259 271 -197 137 62 152 254 26 336 -40 26 -112 38 -151 26z"/> <path d="M1338 2254 c-471 -101 -735 -612 -546 -1056 212 -500 868 -627 1253 -243 384 385 257 1041 -243 1253 -140 60 -317 78 -464 46z m263 -258 c261 -56 440 -309 400 -566 -42 -277 -302 -473 -571 -431 -220 34 -393 204 -430 423 -44 256 135 517 393 573 81 18 128 18 208 1z"/> </g> </svg> 