<svg xmlns="http://www.w3.org/2000/svg" version="1.0" width="300.000000pt" height="300.000000pt" viewBox="0 0 300.000000 300.000000" preserveAspectRatio="xMidYMid meet">
<metadata fill="#ffffff">
Created by potrace 1.10, written by Peter Selinger 2001-2011
</metadata>
<g transform="translate(0.000000,300.000000) scale(0.100000,-0.100000)" fill="#ffffff" stroke="none">
<path d="M1420 2694 c-241 -63 -390 -255 -392 -500 -2 -242 153 -437 397 -499 79 -20 146 -19 236 4 229 58 389 265 389 501 0 65 -34 191 -67 248 -41 71 -140 165 -211 201 -115 58 -241 74 -352 45z m142 -176 c9 -7 18 -26 20 -41 2 -23 10 -32 41 -42 69 -24 80 -43 48 -84 l-19 -24 -38 18 c-48 23 -99 23 -125 -1 -40 -37 -11 -78 81 -114 78 -31 116 -62 127 -107 18 -71 -16 -140 -84 -169 -28 -12 -33 -19 -33 -49 0 -29 -4 -36 -25 -41 -35 -9 -57 12 -51 47 4 26 0 30 -31 38 -41 12 -103 51 -103 66 1 6 10 21 21 34 l20 25 42 -22 c61 -31 93 -35 128 -17 25 14 30 21 27 48 -3 29 -10 35 -85 72 -108 52 -135 79 -140 142 -5 64 21 107 83 135 41 17 45 22 39 45 -10 43 23 67 57 41z" fill="#ffffff"/>
<path d="M2475 1611 c-16 -10 -122 -112 -235 -225 l-205 -206 -203 0 c-202 0 -203 0 -227 25 -33 32 -34 83 -2 113 22 21 31 22 241 22 l217 0 24 25 c32 31 34 91 4 129 l-21 27 -436 -3 -437 -3 -46 -24 c-30 -15 -110 -88 -221 -200 l-175 -176 219 -214 220 -214 116 117 117 116 356 0 c346 0 357 1 383 21 14 11 69 75 120 142 52 67 132 169 177 227 150 191 179 231 179 251 0 11 -11 31 -25 44 -30 31 -96 34 -140 6z" fill="#ffffff"/>
<path d="M481 1016 c-105 -105 -123 -128 -118 -147 9 -33 558 -579 582 -579 25 0 265 240 265 265 0 26 -559 585 -585 585 -13 0 -69 -48 -144 -124z" fill="#ffffff"/>
</g>
</svg>