<?xml version="1.0" standalone="no"?>
<!DOCTYPE svg PUBLIC "-//W3C//DTD SVG 20010904//EN"
 "http://www.w3.org/TR/2001/REC-SVG-20010904/DTD/svg10.dtd">
<svg version="1.0" xmlns="http://www.w3.org/2000/svg"
 width="900.000000pt" height="747.000000pt" viewBox="0 0 900.000000 747.000000"
 preserveAspectRatio="xMidYMid meet">
<metadata>
Created by potrace 1.10, written by Peter Selinger 2001-2011
</metadata>
<g transform="translate(0.000000,747.000000) scale(0.100000,-0.100000)"
fill="#ffffff" stroke="none">
<path d="M3234 6866 c-69 -38 -120 -153 -95 -214 12 -28 59 -63 165 -122 33
-18 98 -56 145 -84 47 -29 111 -66 141 -82 54 -30 335 -192 438 -253 29 -17
54 -31 56 -31 4 0 246 -141 276 -160 8 -6 22 -13 30 -17 8 -4 44 -24 79 -46
35 -21 74 -43 85 -48 12 -5 35 -18 51 -29 17 -11 37 -23 45 -27 8 -4 58 -32
110 -63 52 -31 102 -60 110 -64 8 -4 24 -12 35 -19 100 -59 117 -67 153 -67
52 0 81 24 120 99 36 69 40 116 12 149 -15 18 -311 202 -325 202 -3 0 -197
112 -225 130 -8 6 -22 13 -30 17 -8 4 -70 40 -137 80 -68 40 -125 73 -127 73
-4 0 -195 110 -226 130 -8 6 -22 13 -30 17 -15 7 -253 146 -280 163 -8 6 -22
13 -30 17 -8 4 -48 26 -88 50 -40 24 -75 43 -77 43 -2 0 -46 25 -97 56 -184
112 -233 129 -284 100z"/>
<path d="M3094 6410 c-17 -7 -74 -70 -74 -83 0 -3 -34 -62 -75 -132 -41 -69
-75 -128 -75 -130 0 -2 -32 -57 -71 -122 -39 -65 -75 -127 -80 -138 -5 -11
-13 -27 -19 -35 -18 -27 -160 -271 -160 -275 0 -3 -25 -46 -56 -97 -31 -50
-60 -101 -65 -113 -5 -11 -13 -27 -19 -35 -5 -8 -44 -73 -85 -145 -42 -71 -80
-137 -85 -145 -6 -8 -13 -22 -17 -30 -4 -8 -33 -59 -65 -113 -32 -53 -58 -99
-58 -102 0 -2 -32 -57 -71 -122 -39 -65 -75 -127 -80 -138 -5 -11 -20 -38 -34
-60 -33 -54 -34 -123 -3 -152 23 -21 220 -143 231 -143 3 0 26 -13 50 -30 25
-16 47 -30 50 -30 3 0 62 -34 132 -75 69 -41 128 -75 130 -75 3 0 46 -25 97
-56 50 -31 101 -60 113 -65 11 -5 27 -13 35 -19 39 -25 206 -123 225 -131 11
-5 27 -13 35 -19 26 -17 221 -130 225 -130 2 0 55 -31 117 -68 148 -89 252
-142 278 -142 44 0 82 35 131 120 27 47 54 92 59 100 6 8 13 22 17 30 4 8 40
70 80 137 40 68 73 125 73 127 0 2 34 61 75 130 41 69 75 129 75 132 0 3 16
30 36 60 30 45 40 53 58 48 11 -4 74 -41 139 -83 193 -125 269 -173 361 -231
48 -30 120 -76 159 -101 174 -112 247 -159 319 -205 43 -27 142 -90 220 -141
79 -50 177 -113 218 -139 190 -121 247 -158 272 -175 15 -11 30 -19 33 -19 3
0 11 -5 18 -11 7 -5 66 -44 132 -86 66 -42 149 -95 185 -118 70 -45 123 -79
267 -171 51 -32 131 -84 178 -114 108 -70 118 -76 201 -128 38 -24 103 -66
144 -93 41 -27 84 -54 95 -59 11 -6 54 -33 95 -60 41 -27 104 -68 140 -91 36
-22 99 -63 140 -90 204 -133 240 -130 324 26 15 28 31 57 36 65 51 83 130 222
177 310 18 35 16 83 -4 106 -30 32 -47 42 -478 264 -99 51 -218 113 -265 138
-47 24 -159 83 -250 129 -266 137 -487 252 -600 311 -58 30 -195 101 -305 157
-110 56 -234 120 -275 142 -41 22 -151 80 -245 128 -93 48 -235 122 -315 163
-136 71 -328 170 -570 295 -312 161 -366 189 -375 198 -12 12 7 49 127 252 49
81 88 150 88 152 0 2 25 46 56 97 31 50 60 101 65 113 5 11 18 34 28 50 136
223 147 264 84 321 -20 19 -55 43 -78 55 -22 11 -47 24 -55 29 -42 27 -271
160 -274 160 -2 0 -61 34 -130 75 -69 41 -128 75 -130 75 -2 0 -61 34 -130 75
-69 41 -128 75 -130 75 -2 0 -61 34 -130 75 -69 41 -128 75 -130 75 -2 0 -61
34 -130 75 -69 41 -128 75 -131 75 -2 0 -35 19 -72 42 -131 80 -182 97 -229
78z"/>
<path d="M1650 4122 c-50 -25 -93 -93 -98 -159 -6 -68 3 -78 128 -150 52 -31
148 -86 212 -124 64 -38 119 -69 121 -69 3 0 73 -40 156 -90 84 -49 154 -90
156 -90 2 0 46 -25 97 -56 50 -31 101 -60 113 -65 11 -5 27 -13 35 -19 29 -19
270 -160 274 -160 2 0 61 -34 130 -75 69 -41 128 -75 130 -75 2 0 48 -26 103
-58 231 -138 269 -153 311 -126 81 53 131 196 86 245 -16 18 -177 119 -189
119 -2 0 -57 32 -122 71 -65 39 -127 75 -138 80 -11 5 -27 13 -35 19 -32 21
-152 91 -295 172 -83 47 -166 95 -185 107 -19 11 -42 24 -50 28 -8 4 -70 40
-137 80 -68 40 -125 73 -128 73 -2 0 -49 27 -103 60 -55 33 -102 60 -105 60
-3 0 -63 34 -134 77 -168 100 -251 143 -277 143 -12 0 -37 -8 -56 -18z"/>
<path d="M8311 2382 c-20 -21 -46 -58 -59 -83 -12 -24 -27 -51 -32 -59 -27
-42 -160 -271 -160 -275 0 -2 -19 -35 -42 -72 -56 -91 -62 -148 -22 -191 28
-29 94 -70 197 -120 82 -40 119 -17 201 124 31 52 56 97 56 99 0 2 33 59 74
127 40 68 90 156 111 195 53 101 49 113 -73 193 -176 118 -194 122 -251 62z"/>
<path d="M2535 2110 c-1300 -4 -1757 -8 -1776 -17 -76 -34 -96 -106 -85 -304
6 -107 5 -119 -11 -127 -10 -5 -66 -12 -125 -15 -124 -6 -166 -24 -198 -88
-19 -36 -20 -60 -20 -425 0 -374 1 -388 21 -429 14 -28 36 -51 63 -66 l41 -24
2137 0 2136 0 44 30 c74 52 77 71 78 486 0 388 -3 415 -57 471 -31 33 -95 48
-203 48 -52 0 -82 4 -87 13 -4 6 -8 84 -8 172 0 143 -2 164 -20 195 -26 43
-69 69 -132 78 -26 4 -835 5 -1798 2z m1947 -726 c88 -33 128 -115 128 -260 0
-153 -45 -238 -139 -264 -27 -7 -621 -9 -1909 -8 l-1870 3 -44 30 c-59 42 -77
96 -78 233 0 163 18 209 102 257 l43 25 1862 0 c1691 0 1867 -1 1905 -16z"/>
</g>
</svg>
