<svg xmlns="http://www.w3.org/2000/svg" version="1.0" width="300.000000pt" height="300.000000pt" viewBox="0 0 300.000000 300.000000" preserveAspectRatio="xMidYMid meet">
<metadata fill="#ffffff">
Created by potrace 1.10, written by Peter Selinger 2001-2011
</metadata>
<g transform="translate(0.000000,300.000000) scale(0.100000,-0.100000)" fill="#ffffff" stroke="none">
<path d="M427 2201 c-130 -125 -223 -343 -257 -604 -7 -49 -10 -90 -9 -91 2 -2 65 -34 140 -72 l135 -69 12 112 c21 196 94 376 220 542 35 46 60 87 55 91 -16 14 -222 150 -229 150 -3 0 -33 -27 -67 -59z" fill="#ffffff"/>
<path d="M2391 2173 c-112 -77 -113 -78 -90 -93 80 -52 146 -140 191 -257 39 -99 57 -184 71 -328 l12 -122 135 67 135 67 -2 94 c-2 152 -43 291 -127 433 -43 73 -175 216 -199 216 -7 0 -64 -35 -126 -77z" fill="#ffffff"/>
<path d="M1539 2106 c-2 -2 -70 -6 -152 -9 -101 -3 -153 -9 -165 -18 -9 -8 -74 -65 -144 -127 -116 -103 -128 -116 -128 -147 0 -46 38 -75 96 -75 59 0 85 12 175 80 46 34 95 62 117 67 57 12 141 6 197 -12 50 -17 86 -41 518 -333 l228 -154 34 27 c47 35 114 65 149 65 l29 0 -7 72 c-15 164 -72 301 -168 403 l-60 65 -32 -27 c-17 -14 -46 -32 -65 -40 -61 -26 -93 -16 -471 143 -47 20 -138 32 -151 20z" fill="#ffffff"/>
<path d="M756 1988 c-127 -146 -199 -310 -229 -520 -6 -37 -5 -38 36 -48 60 -15 71 -22 185 -113 l103 -83 48 48 c51 51 88 61 134 37 31 -17 37 -28 37 -78 l0 -44 23 20 c54 50 96 55 134 17 23 -23 25 -31 21 -81 l-5 -55 24 31 c45 58 115 78 146 43 30 -32 31 -74 4 -150 l-25 -71 33 24 c36 28 86 33 105 10 19 -22 14 -78 -10 -124 l-20 -40 58 -36 c78 -49 152 -70 196 -55 45 15 69 44 70 84 l1 33 56 -1 c44 -1 62 4 79 19 29 26 53 81 45 106 -6 17 -4 18 20 9 56 -21 95 -13 137 30 37 37 40 43 36 88 l-3 49 47 -5 c41 -4 50 -1 71 22 53 57 38 115 -46 182 -141 113 -634 444 -714 481 -72 33 -173 42 -225 20 -21 -9 -68 -40 -105 -70 -38 -30 -85 -60 -107 -67 -49 -16 -121 -8 -155 17 -68 51 -62 123 14 191 25 22 45 45 45 51 0 16 -30 29 -106 45 -38 8 -81 17 -95 21 -22 5 -32 0 -63 -37z" fill="#ffffff"/>
<path d="M917 1255 c-40 -38 -59 -80 -55 -128 6 -83 91 -87 145 -6 33 51 42 113 18 139 -26 28 -74 26 -108 -5z" fill="#ffffff"/>
<path d="M1119 1197 c-79 -53 -129 -225 -77 -261 35 -25 58 -19 99 23 68 72 100 200 59 241 -26 26 -39 25 -81 -3z" fill="#ffffff"/>
<path d="M1285 1097 c-52 -55 -97 -144 -99 -196 -1 -43 25 -81 55 -81 67 0 180 206 159 290 -4 19 -13 26 -39 28 -28 3 -40 -3 -76 -41z" fill="#ffffff"/>
<path d="M1450 957 c-36 -18 -90 -113 -90 -159 0 -43 27 -66 58 -49 66 36 126 173 90 209 -15 15 -27 15 -58 -1z" fill="#ffffff"/>
</g>
</svg>